<svg width="349" height="122" viewBox="0 0 349 122" fill="none" xmlns="http://www.w3.org/2000/svg">
<g clip-path="url(#clip0_102_904)">
<rect width="341.953" height="87.54" transform="translate(8.76758 0.00369263) rotate(5.75049)" fill="#4A3780"/>
<g style="mix-blend-mode:lighten" opacity="0.7">
<circle cx="-20.6164" cy="109.773" r="135.869" transform="rotate(5.75049 -20.6164 109.773)" stroke="url(#paint0_linear_102_904)" stroke-opacity="0.17" stroke-width="40.1225"/>
</g>
<g style="mix-blend-mode:lighten" opacity="0.7">
<circle cx="353.462" cy="76.4157" r="50.1531" transform="rotate(5.75049 353.462 76.4157)" stroke="url(#paint1_linear_102_904)" stroke-opacity="0.17" stroke-width="31.9156"/>
</g>
<g clip-path="url(#clip1_102_904)">
<path d="M127.065 60.7254L125.023 60.5198L129.803 50.3366L132.164 50.5744L134.823 61.5067L132.782 61.3011L130.807 52.6247L130.724 52.6164L127.065 60.7254ZM127.548 56.5926L133.116 57.1533L132.961 58.6895L127.394 58.1288L127.548 56.5926ZM138.814 62.0492C138.192 61.9866 137.652 61.7707 137.192 61.4016C136.733 61.0325 136.392 60.5294 136.168 59.8924C135.944 59.2554 135.875 58.5022 135.963 57.6327C136.052 56.7529 136.271 56.0251 136.62 55.4493C136.974 54.8704 137.413 54.4513 137.939 54.1918C138.466 53.9289 139.033 53.8281 139.641 53.8893C140.105 53.936 140.479 54.0535 140.762 54.2417C141.045 54.4265 141.264 54.6376 141.417 54.8752C141.57 55.1094 141.685 55.3276 141.762 55.5297L141.839 55.5375L142.237 51.5887L144.108 51.7772L143.045 62.3347L141.21 62.1499L141.336 60.9024L141.222 60.8909C141.107 61.0737 140.947 61.2642 140.743 61.4623C140.539 61.6571 140.28 61.815 139.966 61.9361C139.652 62.0572 139.268 62.0949 138.814 62.0492ZM139.489 60.5706C139.884 60.6104 140.232 60.5378 140.532 60.3527C140.832 60.1643 141.074 59.8848 141.257 59.5145C141.44 59.1441 141.557 58.7029 141.609 58.1908C141.66 57.6787 141.633 57.2264 141.527 56.8339C141.424 56.4416 141.244 56.1267 140.987 55.889C140.733 55.6517 140.405 55.5128 140.003 55.4723C139.587 55.4304 139.229 55.5037 138.929 55.6922C138.628 55.8807 138.389 56.1585 138.209 56.5258C138.03 56.8931 137.916 57.3225 137.866 57.8139C137.816 58.3088 137.842 58.7575 137.944 59.1601C138.05 59.5595 138.23 59.8849 138.486 60.1363C138.746 60.3847 139.08 60.5294 139.489 60.5706ZM147.958 62.97C147.336 62.9074 146.795 62.6915 146.336 62.3224C145.877 61.9533 145.535 61.4503 145.311 60.8132C145.087 60.1762 145.019 59.423 145.107 58.5535C145.195 57.6737 145.414 56.9459 145.764 56.3701C146.117 55.7912 146.557 55.3721 147.083 55.1126C147.609 54.8497 148.177 54.7489 148.785 54.8101C149.249 54.8568 149.623 54.9743 149.906 55.1625C150.189 55.3473 150.407 55.5584 150.56 55.796C150.714 56.0302 150.829 56.2484 150.906 56.4505L150.983 56.4583L151.381 52.5095L153.252 52.698L152.189 63.2555L150.354 63.0707L150.479 61.8232L150.366 61.8117C150.25 61.9945 150.091 62.185 149.887 62.3831C149.683 62.5779 149.424 62.7358 149.11 62.8569C148.796 62.978 148.412 63.0157 147.958 62.97ZM148.633 61.4914C149.028 61.5312 149.376 61.4586 149.676 61.2736C149.976 61.0851 150.217 60.8057 150.4 60.4353C150.584 60.0649 150.701 59.6237 150.752 59.1116C150.804 58.5995 150.777 58.1472 150.67 57.7547C150.568 57.3624 150.388 57.0475 150.13 56.8098C149.876 56.5725 149.548 56.4336 149.146 56.3931C148.731 56.3512 148.373 56.4245 148.072 56.613C147.772 56.8015 147.532 57.0793 147.353 57.4466C147.174 57.8139 147.059 58.2433 147.01 58.7347C146.96 59.2296 146.986 59.6783 147.088 60.0809C147.193 60.4803 147.374 60.8057 147.63 61.0572C147.89 61.3055 148.224 61.4502 148.633 61.4914ZM167.6 54.1428L166.537 64.7004L164.836 64.529L160.585 56.8368L160.498 56.828L159.773 64.0193L157.861 63.8267L158.924 53.2692L160.635 53.4415L164.88 61.1384L164.973 61.1477L165.698 53.9513L167.6 54.1428ZM172.028 65.4096C171.234 65.3296 170.565 65.0956 170.021 64.7076C169.481 64.3164 169.086 63.8011 168.838 63.1617C168.591 62.5188 168.509 61.7832 168.592 60.955C168.674 60.1405 168.901 59.4412 169.272 58.8572C169.647 58.2701 170.132 57.8329 170.727 57.5457C171.322 57.255 171.997 57.1477 172.753 57.2238C173.241 57.273 173.694 57.3984 174.111 57.6001C174.532 57.7987 174.893 58.078 175.193 58.4381C175.497 58.7985 175.72 59.241 175.861 59.7655C176.003 60.2867 176.039 60.8943 175.969 61.5886L175.912 62.1608L169.422 61.5072L169.548 60.2494L174.25 60.7228C174.282 60.365 174.237 60.0394 174.114 59.7458C173.991 59.4487 173.802 59.2058 173.547 59.0169C173.295 58.8284 172.99 58.7161 172.633 58.6801C172.251 58.6417 171.907 58.7008 171.6 58.8573C171.293 59.0104 171.043 59.2282 170.852 59.511C170.664 59.7906 170.55 60.1072 170.511 60.4609L170.401 61.5589C170.354 62.0194 170.399 62.4231 170.534 62.77C170.669 63.1134 170.879 63.388 171.164 63.5938C171.449 63.796 171.795 63.9176 172.2 63.9584C172.472 63.9858 172.721 63.9727 172.949 63.9193C173.177 63.8624 173.379 63.7665 173.556 63.6315C173.733 63.4966 173.873 63.3215 173.978 63.1065L175.701 63.4778C175.545 63.9273 175.295 64.3082 174.951 64.6208C174.611 64.9302 174.192 65.1554 173.695 65.2963C173.199 65.4338 172.643 65.4715 172.028 65.4096ZM178.735 65.9287L177.295 57.7853L179.197 57.9769L180.028 63.6845L180.101 63.6917L182.084 58.2676L183.966 58.4571L184.831 64.1369L184.908 64.1446L186.837 58.7462L188.744 58.9383L185.704 66.6306L183.761 66.4349L182.815 60.9345L182.707 60.9236L180.683 66.125L178.735 65.9287ZM193.371 58.3575L193.532 56.7543L201.956 57.6026L201.794 59.2058L198.531 58.8772L197.629 67.8315L195.732 67.6404L196.634 58.6861L193.371 58.3575ZM203.619 68.5961C203.117 68.5456 202.674 68.4107 202.29 68.1915C201.91 67.9692 201.621 67.6693 201.423 67.2918C201.228 66.9146 201.157 66.4666 201.209 65.9476C201.254 65.5008 201.374 65.1397 201.568 64.8642C201.762 64.5887 202.011 64.3777 202.314 64.2311C202.617 64.0846 202.952 63.9846 203.318 63.9313C203.688 63.8748 204.068 63.8453 204.457 63.8429C204.926 63.8415 205.306 63.8364 205.599 63.8277C205.892 63.8155 206.107 63.7748 206.246 63.7054C206.389 63.633 206.469 63.5075 206.487 63.3287L206.49 63.2978C206.53 62.9095 206.445 62.5972 206.236 62.3609C206.027 62.1246 205.706 61.9847 205.273 61.9411C204.816 61.8951 204.444 61.9582 204.155 62.1306C203.871 62.3032 203.668 62.5206 203.548 62.7828L201.831 62.3599C202.017 61.8926 202.284 61.5134 202.633 61.2221C202.982 60.9275 203.393 60.7224 203.866 60.6069C204.34 60.488 204.853 60.4564 205.407 60.5121C205.788 60.5505 206.163 60.6334 206.532 60.7609C206.902 60.8883 207.232 61.0709 207.524 61.3085C207.816 61.5428 208.039 61.8447 208.193 62.2143C208.35 62.5842 208.402 63.0321 208.349 63.5579L207.816 68.8573L206.022 68.6766L206.131 67.5889L206.069 67.5827C205.934 67.7912 205.753 67.9813 205.528 68.153C205.306 68.3216 205.034 68.4488 204.713 68.5345C204.396 68.6171 204.031 68.6376 203.619 68.5961ZM204.242 67.2736C204.616 67.3114 204.948 67.2702 205.238 67.1501C205.528 67.0266 205.76 66.8485 205.932 66.616C206.109 66.3837 206.211 66.1216 206.241 65.8295L206.335 64.8964C206.271 64.9386 206.167 64.9733 206.022 65.0003C205.881 65.0277 205.722 65.0482 205.547 65.0618C205.372 65.0755 205.2 65.0858 205.029 65.0929C204.858 65.1 204.71 65.1059 204.584 65.1107C204.302 65.1204 204.047 65.1572 203.818 65.221C203.59 65.2847 203.404 65.3876 203.261 65.5294C203.119 65.6678 203.035 65.8573 203.011 66.0979C202.977 66.4415 203.076 66.7136 203.309 66.9142C203.542 67.1147 203.853 67.2345 204.242 67.2736ZM216.537 63.8513L214.817 63.8655C214.786 63.6889 214.718 63.5189 214.613 63.3555C214.512 63.1926 214.366 63.0546 214.176 62.9418C213.986 62.8289 213.747 62.7579 213.458 62.7289C213.07 62.6898 212.735 62.7411 212.453 62.8828C212.175 63.0249 212.024 63.2302 212 63.4986C211.974 63.7285 212.039 63.9243 212.196 64.0859C212.357 64.2479 212.634 64.3956 213.027 64.5288L214.348 64.9535C215.081 65.1905 215.612 65.5026 215.941 65.8898C216.274 66.2774 216.413 66.7549 216.359 67.3223C216.306 67.8203 216.115 68.2454 215.788 68.5978C215.465 68.9472 215.038 69.2027 214.508 69.3646C213.978 69.5265 213.383 69.5742 212.723 69.5077C211.754 69.4101 210.994 69.1288 210.444 68.6637C209.894 68.1952 209.599 67.591 209.559 66.851L211.396 66.859C211.443 67.2247 211.591 67.5121 211.841 67.7213C212.09 67.9304 212.43 68.0566 212.86 68.0999C213.303 68.1445 213.668 68.0893 213.954 67.9341C214.244 67.7793 214.403 67.5679 214.43 67.2998C214.452 67.073 214.384 66.8769 214.223 66.7114C214.066 66.5463 213.81 66.4059 213.453 66.2902L212.131 65.8707C211.388 65.6361 210.853 65.3132 210.526 64.9019C210.2 64.4872 210.068 63.9913 210.129 63.4143C210.175 62.9259 210.35 62.5165 210.654 62.1861C210.962 61.8526 211.366 61.6121 211.867 61.4647C212.371 61.3142 212.94 61.2707 213.572 61.3344C214.5 61.4279 215.211 61.699 215.703 62.1479C216.2 62.5971 216.478 63.1649 216.537 63.8513ZM219.611 67.5351L219.832 65.2819L220.131 65.312L223.297 62.4179L225.478 62.6375L221.585 66.1822L221.198 66.1433L219.611 67.5351ZM217.659 69.8486L218.722 59.291L220.589 59.479L219.525 70.0365L217.659 69.8486ZM222.629 70.349L220.414 66.4861L221.804 65.2982L224.861 70.5738L222.629 70.349Z" fill="white"/>
<rect x="21.0913" y="23.2404" width="43.77" height="43.77" rx="21.885" transform="rotate(5.75049 21.0913 23.2404)" fill="white"/>
<path d="M35.7778 41.2162L46.2005 53.9732M34.6107 52.806L47.3677 42.3833" stroke="#14142B" stroke-width="1.82375" stroke-linecap="round" stroke-linejoin="round"/>
</g>
</g>
<defs>
<linearGradient id="paint0_linear_102_904" x1="-20.6164" y1="-46.1581" x2="-26.0876" y2="138.041" gradientUnits="userSpaceOnUse">
<stop offset="0.0001" stop-color="white" stop-opacity="0.97"/>
<stop offset="0.0002" stop-color="white" stop-opacity="0.77"/>
<stop offset="1" stop-color="white" stop-opacity="0"/>
<stop offset="1" stop-color="white" stop-opacity="0"/>
</linearGradient>
<linearGradient id="paint1_linear_102_904" x1="353.462" y1="10.3048" x2="353.462" y2="142.527" gradientUnits="userSpaceOnUse">
<stop stop-color="white"/>
<stop offset="1" stop-color="white" stop-opacity="0"/>
<stop offset="1" stop-color="white" stop-opacity="0"/>
</linearGradient>
<clipPath id="clip0_102_904">
<rect width="341.953" height="87.54" fill="white" transform="translate(8.76758 0.00369263) rotate(5.75049)"/>
</clipPath>
<clipPath id="clip1_102_904">
<rect width="312.773" height="43.77" fill="white" transform="translate(21.0913 23.2404) rotate(5.75049)"/>
</clipPath>
</defs>
</svg>
